<?xml version="1.0" encoding="utf-8"?>
<!-- Generator: Adobe Illustrator 24.2.2, SVG Export Plug-In . SVG Version: 6.00 Build 0)  -->
<svg version="1.1" id="Calque_1" xmlns="http://www.w3.org/2000/svg" xmlns:xlink="http://www.w3.org/1999/xlink" x="0px" y="0px"
	 viewBox="0 0 300 100" style="enable-background:new 0 0 300 100;" xml:space="preserve">
<style type="text/css">
	.st0{fill:#AA2020;}
</style>
<g>
	<g>
		
			<image style="overflow:visible;opacity:0.67;" width="180" height="41" xlink:href="2B39F9C0.png"  transform="matrix(1 0 0 1 79 17)">
		</image>
		<g>
			<g>
				<path d="M88.98,49.35c-1.39,0-2.58-0.49-3.57-1.46c-0.99-0.97-1.48-2.14-1.48-3.51V33.43c0-1.37,0.49-2.54,1.48-3.51
					c0.99-0.97,2.18-1.46,3.57-1.46h11.47c1.39,0,2.58,0.49,3.57,1.46c0.99,0.97,1.48,2.14,1.48,3.51v7.85H88.73v2.09
					c0,0.67,0.04,1.05,0.13,1.13c0.09,0.08,0.47,0.13,1.15,0.13h15.5v4.72H88.98z M88.73,37.03h11.98v-2.59
					c0-0.67-0.04-1.05-0.13-1.13c-0.09-0.08-0.47-0.13-1.15-0.13h-9.42c-0.68,0-1.07,0.04-1.15,0.13c-0.09,0.08-0.13,0.46-0.13,1.13
					V37.03z"/>
				<path d="M109.14,49.35V21.63h4.8v6.84h11.73c1.37,0,2.55,0.49,3.55,1.46c1,0.97,1.5,2.14,1.5,3.51v15.91h-4.8v-14.9
					c0-0.67-0.04-1.05-0.13-1.13c-0.09-0.08-0.47-0.13-1.15-0.13h-9.42c-0.68,0-1.07,0.04-1.15,0.13c-0.09,0.08-0.13,0.46-0.13,1.13
					v14.9H109.14z"/>
				<path d="M133.62,26.38v-4.75h4.8v4.75H133.62z M133.62,49.35V28.47h4.8v20.88H133.62z"/>
				<path d="M146.85,49.35c-1.39,0-2.58-0.49-3.57-1.46c-0.99-0.97-1.48-2.14-1.48-3.51V33.43c0-1.37,0.49-2.54,1.48-3.51
					c0.99-0.97,2.18-1.46,3.57-1.46h16.49v4.72h-15.46c-0.68,0-1.07,0.04-1.15,0.13c-0.09,0.08-0.13,0.46-0.13,1.13v8.93
					c0,0.67,0.04,1.05,0.13,1.13s0.47,0.13,1.15,0.13h15.5v4.72H146.85z"/>
				<path d="M171.48,49.35c-1.39,0-2.58-0.49-3.57-1.46s-1.48-2.14-1.48-3.51V28.47h4.8v14.9c0,0.67,0.04,1.05,0.13,1.13
					s0.47,0.13,1.15,0.13h9.42c0.68,0,1.07-0.04,1.15-0.13c0.08-0.08,0.13-0.46,0.13-1.13v-14.9h4.8v15.91
					c0,1.37-0.5,2.54-1.48,3.51s-2.18,1.46-3.57,1.46H171.48z"/>
				<path d="M196.91,49.35c-1.39,0-2.58-0.49-3.57-1.46s-1.48-2.14-1.48-3.51V21.59h4.84v21.78c0,0.67,0.04,1.05,0.13,1.13
					s0.46,0.13,1.12,0.13h3.26v4.72H196.91z"/>
				<path d="M208.89,49.35c-1.39,0-2.58-0.49-3.57-1.46c-0.99-0.97-1.48-2.14-1.48-3.51V33.43c0-1.37,0.49-2.54,1.48-3.51
					c0.99-0.97,2.18-1.46,3.57-1.46h11.47c1.39,0,2.58,0.49,3.57,1.46c0.99,0.97,1.48,2.14,1.48,3.51v7.85h-16.78v2.09
					c0,0.67,0.04,1.05,0.13,1.13s0.47,0.13,1.15,0.13h15.5v4.72H208.89z M208.63,37.03h11.98v-2.59c0-0.67-0.04-1.05-0.13-1.13
					c-0.09-0.08-0.47-0.13-1.15-0.13h-9.42c-0.68,0-1.07,0.04-1.15,0.13c-0.09,0.08-0.13,0.46-0.13,1.13V37.03z"/>
				<path d="M233.88,49.35c-1.39,0-2.58-0.49-3.57-1.46s-1.48-2.14-1.48-3.51v-0.79h4.8v0.22c0,0.38,0.04,0.62,0.13,0.7
					c0.08,0.08,0.32,0.13,0.71,0.13h10.3c0.39,0,0.63-0.04,0.71-0.13c0.08-0.08,0.13-0.32,0.13-0.7v-1.69c0-0.38-0.04-0.62-0.13-0.7
					c-0.09-0.08-0.32-0.13-0.71-0.13h-10.88c-1.39,0-2.58-0.49-3.57-1.48c-0.99-0.98-1.48-2.15-1.48-3.49v-2.88
					c0-1.37,0.5-2.54,1.48-3.51c0.99-0.97,2.18-1.46,3.57-1.46h11.47c1.39,0,2.59,0.49,3.59,1.46c1,0.97,1.5,2.14,1.5,3.51v0.79
					h-4.84v-0.22c0-0.38-0.04-0.62-0.13-0.7c-0.09-0.08-0.32-0.13-0.71-0.13h-10.3c-0.39,0-0.63,0.04-0.71,0.13
					c-0.09,0.08-0.13,0.32-0.13,0.7v1.69c0,0.38,0.04,0.62,0.13,0.7c0.08,0.08,0.32,0.13,0.71,0.13h10.88
					c1.39,0,2.59,0.49,3.59,1.48c1,0.98,1.5,2.15,1.5,3.49v2.88c0,1.37-0.5,2.54-1.5,3.51s-2.2,1.46-3.59,1.46H233.88z"/>
			</g>
		</g>
	</g>
	<g>
		
			<image style="overflow:visible;opacity:0.67;" width="226" height="40" xlink:href="2B39F9CF.png"  transform="matrix(1 0 0 1 63 54)">
		</image>
		<g>
			<g>
				<path d="M72.28,85.93c-1.39,0-2.58-0.49-3.57-1.46c-0.99-0.97-1.48-2.14-1.48-3.51V70.02c0-1.37,0.49-2.54,1.48-3.51
					c0.99-0.97,2.18-1.46,3.57-1.46h11.76v-6.84h4.8v27.72H72.28z M73.34,81.22h9.42c0.68,0,1.07-0.04,1.15-0.13
					c0.09-0.08,0.13-0.46,0.13-1.13v-8.93c0-0.67-0.04-1.05-0.13-1.13c-0.09-0.08-0.47-0.13-1.15-0.13h-9.42
					c-0.68,0-1.07,0.04-1.15,0.13c-0.09,0.08-0.13,0.46-0.13,1.13v8.93c0,0.67,0.04,1.05,0.13,1.13
					C72.27,81.18,72.66,81.22,73.34,81.22z"/>
				<path d="M92.8,69.52v-9.18h4.8v4.21c0,1.2-0.46,2.26-1.37,3.19C95.31,68.66,94.17,69.25,92.8,69.52z"/>
				<path d="M105.66,85.93c-1.39,0-2.58-0.49-3.57-1.46c-0.99-0.97-1.48-2.14-1.48-3.51V70.02c0-1.37,0.49-2.54,1.48-3.51
					c0.99-0.97,2.18-1.46,3.57-1.46h11.47c1.39,0,2.58,0.49,3.57,1.46c0.99,0.97,1.48,2.14,1.48,3.51v10.94
					c0,1.37-0.49,2.54-1.48,3.51c-0.99,0.97-2.18,1.46-3.57,1.46H105.66z M106.69,81.22h9.42c0.68,0,1.07-0.04,1.15-0.13
					s0.13-0.46,0.13-1.13v-8.93c0-0.67-0.04-1.05-0.13-1.13s-0.47-0.13-1.15-0.13h-9.42c-0.68,0-1.07,0.04-1.15,0.13
					c-0.09,0.08-0.13,0.46-0.13,1.13v8.93c0,0.67,0.04,1.05,0.13,1.13C105.62,81.18,106,81.22,106.69,81.22z"/>
				<path d="M131.02,85.93c-1.39,0-2.58-0.49-3.57-1.46c-0.99-0.97-1.48-2.14-1.48-3.51V70.02c0-1.37,0.49-2.54,1.48-3.51
					c0.99-0.97,2.18-1.46,3.57-1.46h16.49v4.72h-15.46c-0.68,0-1.07,0.04-1.15,0.13s-0.13,0.46-0.13,1.13v8.93
					c0,0.67,0.04,1.05,0.13,1.13s0.47,0.13,1.15,0.13h15.5v4.72H131.02z"/>
				<path d="M156.24,85.93c-1.39,0-2.58-0.49-3.57-1.46c-0.99-0.97-1.48-2.14-1.48-3.51V70.02c0-1.37,0.49-2.54,1.48-3.51
					c0.99-0.97,2.18-1.46,3.57-1.46h16.49v4.72h-15.46c-0.68,0-1.07,0.04-1.15,0.13s-0.13,0.46-0.13,1.13v8.93
					c0,0.67,0.04,1.05,0.13,1.13s0.47,0.13,1.15,0.13h15.5v4.72H156.24z"/>
				<path d="M181.48,85.93c-1.39,0-2.58-0.49-3.57-1.46c-0.99-0.97-1.48-2.14-1.48-3.51v-7.85h16.79v-2.09
					c0-0.67-0.04-1.05-0.13-1.13s-0.47-0.13-1.15-0.13h-15.5v-4.72h16.53c1.39,0,2.58,0.49,3.57,1.46c0.99,0.97,1.48,2.14,1.48,3.51
					v15.91H181.48z M182.51,81.22h10.7v-3.85h-11.98v2.59c0,0.67,0.04,1.05,0.13,1.13C181.44,81.18,181.83,81.22,182.51,81.22z"/>
				<path d="M205.96,85.93c-1.39,0-2.58-0.49-3.57-1.46c-0.99-0.97-1.48-2.14-1.48-3.51v-0.79h4.8v0.22c0,0.38,0.04,0.62,0.13,0.7
					c0.08,0.08,0.32,0.13,0.71,0.13h10.3c0.39,0,0.63-0.04,0.71-0.13c0.08-0.08,0.13-0.32,0.13-0.7V78.7c0-0.38-0.04-0.62-0.13-0.7
					c-0.09-0.08-0.32-0.13-0.71-0.13h-10.88c-1.39,0-2.58-0.49-3.57-1.48s-1.48-2.15-1.48-3.49v-2.88c0-1.37,0.5-2.54,1.48-3.51
					c0.99-0.97,2.18-1.46,3.57-1.46h11.47c1.39,0,2.59,0.49,3.59,1.46c1,0.97,1.5,2.14,1.5,3.51v0.79h-4.84V70.6
					c0-0.38-0.04-0.62-0.13-0.7c-0.09-0.08-0.32-0.13-0.71-0.13h-10.3c-0.39,0-0.63,0.04-0.71,0.13c-0.09,0.08-0.13,0.32-0.13,0.7
					v1.69c0,0.38,0.04,0.62,0.13,0.7c0.08,0.08,0.32,0.13,0.71,0.13h10.88c1.39,0,2.59,0.49,3.59,1.48s1.5,2.15,1.5,3.49v2.88
					c0,1.37-0.5,2.54-1.5,3.51c-1,0.97-2.2,1.46-3.59,1.46H205.96z"/>
				<path d="M226.19,62.97v-4.75h4.8v4.75H226.19z M226.19,85.93V65.05h4.8v20.88H226.19z"/>
				<path d="M239.35,85.93c-1.39,0-2.58-0.49-3.57-1.46c-0.99-0.97-1.48-2.14-1.48-3.51V70.02c0-1.37,0.49-2.54,1.48-3.51
					c0.99-0.97,2.18-1.46,3.57-1.46h11.47c1.39,0,2.58,0.49,3.57,1.46c0.99,0.97,1.48,2.14,1.48,3.51v10.94
					c0,1.37-0.5,2.54-1.48,3.51c-0.99,0.97-2.18,1.46-3.57,1.46H239.35z M240.38,81.22h9.42c0.68,0,1.07-0.04,1.15-0.13
					c0.08-0.08,0.13-0.46,0.13-1.13v-8.93c0-0.67-0.04-1.05-0.13-1.13c-0.09-0.08-0.47-0.13-1.15-0.13h-9.42
					c-0.68,0-1.07,0.04-1.15,0.13s-0.13,0.46-0.13,1.13v8.93c0,0.67,0.04,1.05,0.13,1.13S239.69,81.22,240.38,81.22z"/>
				<path d="M258.84,85.93V65.05h16.53c1.39,0,2.58,0.49,3.57,1.46c0.99,0.97,1.48,2.14,1.48,3.51v15.91h-4.8v-14.9
					c0-0.67-0.04-1.05-0.13-1.13s-0.47-0.13-1.15-0.13h-9.42c-0.68,0-1.07,0.04-1.15,0.13c-0.09,0.08-0.13,0.46-0.13,1.13v14.9
					H258.84z"/>
			</g>
		</g>
	</g>
	<g>
		
			<image style="overflow:visible;opacity:0.67;" width="77" height="99" xlink:href="2B39F9CE.png"  transform="matrix(1 0 0 1 10 2)">
		</image>
		<g>
			<polygon class="st0" points="41.09,92.61 14.74,43.2 23.56,38.49 40.38,70.03 69.54,6.01 78.64,10.15 			"/>
		</g>
	</g>
</g>
</svg>
