<svg enable-background="new 0 0 1000 1000" version="1.1"  fill="#333333" width="13px" height="13px" viewBox="0 0 1000 1000" xml:space="preserve" xmlns="http://www.w3.org/2000/svg">
<metadata> Svg Vector Icons : http://www.onlinewebfonts.com/icon </metadata>
<path d="m500 10c-270.6 0-490 219.4-490 490s219.4 490 490 490 490-219.4 490-490-219.4-490-490-490zm162.2 489.9v0c0 10.8-4.4 20.4-11.6 27.2l-226.4 226.5c-6.8 6.5-16 10.6-26.2 10.6-20.9 0-37.7-16.9-37.7-37.7 0-10.2 4-19.4 10.6-26.2l200.3-200.3-197.8-197.8c-8.1-6.9-13.2-17.2-13.2-28.6 0-20.8 16.9-37.7 37.7-37.7 10.1 0 19.3 4 26.1 10.5l0.1-0.1 226.5 226.5c7.1 6.7 11.6 16.4 11.6 27.1z"/>
</svg>
